<svg width="25" height="24" viewBox="0 0 25 24" fill="none" xmlns="http://www.w3.org/2000/svg">
<path d="M11.73 23.9998C12.2032 23.9893 12.6573 23.8186 13.012 23.5177C13.3667 23.2167 13.5991 22.8051 13.6681 22.3556H9.7169C9.78787 22.8173 10.0311 23.2386 10.4014 23.5411C10.7718 23.8435 11.2439 24.0065 11.73 23.9998Z" fill="#1E6D8F"/>
<path d="M22.6296 19.3484C21.9052 18.7285 21.271 18.0178 20.7441 17.2354C20.1689 16.1555 19.8241 14.9762 19.73 13.7667V10.2042C19.727 9.77152 19.6868 9.33977 19.6099 8.91339C19.0186 8.79992 18.4504 8.59536 17.9272 8.30762C18.1267 8.92409 18.228 9.56594 18.2277 10.2115V13.7739C18.3198 15.2494 18.7425 16.6884 19.4671 17.9926C19.9857 18.7816 20.6011 19.5079 21.3 20.1561H2.06244C2.76134 19.5079 3.37669 18.7816 3.89531 17.9926C4.6199 16.6884 5.04267 15.2494 5.13474 13.7739V10.2042C5.13079 9.36965 5.29835 8.5425 5.62784 7.77017C5.95733 6.99783 6.44228 6.29547 7.0549 5.70331C7.66753 5.11116 8.39581 4.64082 9.19804 4.31925C10.0003 3.99768 10.8607 3.83118 11.73 3.82929C13.0024 3.83027 14.2461 4.19149 15.3056 4.86775C15.1888 4.45596 15.1233 4.03234 15.1103 3.60574V3.15142C14.326 2.78101 13.4834 2.53735 12.6164 2.43027V1.52162C12.6164 1.26629 12.5108 1.02141 12.3227 0.840867C12.1346 0.66032 11.8796 0.55889 11.6136 0.55889C11.3477 0.55889 11.0926 0.66032 10.9045 0.840867C10.7165 1.02141 10.6108 1.26629 10.6108 1.52162V2.46633C8.66955 2.72922 6.89292 3.65748 5.6089 5.07972C4.32488 6.50196 3.62017 8.32215 3.62488 10.2042V13.7667C3.5308 14.9762 3.18603 16.1555 2.6108 17.2354C2.09315 18.016 1.46916 18.7266 0.755399 19.3484C0.675272 19.416 0.611055 19.4992 0.567018 19.5924C0.522981 19.6857 0.500135 19.7869 0.5 19.8893V20.87C0.5 21.0613 0.579141 21.2447 0.720014 21.3799C0.860886 21.5152 1.05195 21.5912 1.25117 21.5912H22.1338C22.333 21.5912 22.5241 21.5152 22.665 21.3799C22.8058 21.2447 22.885 21.0613 22.885 20.87V19.8893C22.8848 19.7869 22.862 19.6857 22.818 19.5924C22.7739 19.4992 22.7097 19.416 22.6296 19.3484Z" fill="#1E6D8F"/>
<path d="M24.5 3.60574C24.5 5.59713 22.8184 7.21148 20.7441 7.21148C18.6698 7.21148 16.9883 5.59713 16.9883 3.60574C16.9883 1.61434 18.6698 0 20.7441 0C22.8184 0 24.5 1.61434 24.5 3.60574Z" fill="#A8201A"/>
</svg>
