<svg width="40" height="40" viewBox="0 0 40 40" fill="none" xmlns="http://www.w3.org/2000/svg">
<path d="M18.0667 18.7L16.92 14.42C18.1333 14.12 21.6517 12.6683 22.57 15.2633C23.02 18.0667 19.2733 18.3917 18.0667 18.7ZM18.5483 20.8883L19.8067 25.6033C21.2533 25.2233 25.6333 24.8367 25.2083 21.685C24.4867 18.9083 20 20.5083 18.5483 20.8883ZM40 20C40 31.045 31.045 40 20 40C8.955 40 0 31.045 0 20C0 8.955 8.955 0 20 0C31.045 0 40 8.955 40 20ZM29.4317 21.1017C29.1267 19.1833 27.03 17.61 25.29 17.4317C26.3617 16.4817 26.905 15.0967 26.24 13.285C25.235 11.005 22.925 10.5183 20.0983 10.99L19.1883 7.46667L17.0467 8.02L17.94 11.5333C17.3767 11.675 16.7983 11.7967 16.225 11.96L15.33 8.46667L13.1883 9.02L14.0967 12.5433C13.635 12.675 9.77167 13.665 9.77167 13.665L10.36 15.96C10.36 15.96 11.9333 15.5183 11.9183 15.5533C12.7917 15.325 13.2033 15.7617 13.395 16.1733L15.8917 25.8283C15.9217 26.1083 15.8717 26.585 15.2717 26.7467C15.3067 26.7667 13.7133 27.1483 13.7133 27.1483L13.9467 29.8233C13.9467 29.8233 17.7733 28.8433 18.2767 28.7167L19.195 32.28L21.3367 31.7267L20.4183 28.1383C21.0067 28.0017 21.58 27.8583 22.1383 27.7117L23.0517 31.28L25.1933 30.7267L24.275 27.1683C27.5783 26.365 29.9083 24.285 29.4317 21.1017Z" fill="#FB9600"/>
</svg>
